<mxfile host="app.diagrams.net" agent="Mozilla/5.0 (Windows NT 10.0; Win64; x64) AppleWebKit/537.36 (KHTML, like Gecko) Chrome/132.0.0.0 Safari/537.36" version="26.0.8">
  <diagram name="Page-1" id="nz0TRElIpgYFRaquWmAy">
    <mxGraphModel dx="2840" dy="1500" grid="1" gridSize="10" guides="1" tooltips="1" connect="1" arrows="1" fold="1" page="1" pageScale="1" pageWidth="1654" pageHeight="1169" math="0" shadow="0">
      <root>
        <mxCell id="0" />
        <mxCell id="1" parent="0" />
        <mxCell id="rh2bYiGe0c8pdotI4nRt-1" value="&lt;h1 style=&quot;margin-top: 0px;&quot;&gt;Enumeration Process&lt;/h1&gt;&lt;div&gt;Visual representation of the enumeration process&lt;/div&gt;" style="text;html=1;whiteSpace=wrap;overflow=hidden;rounded=0;" vertex="1" parent="1">
          <mxGeometry x="370" y="340" width="180" height="120" as="geometry" />
        </mxCell>
        <mxCell id="rh2bYiGe0c8pdotI4nRt-45" style="edgeStyle=orthogonalEdgeStyle;rounded=0;orthogonalLoop=1;jettySize=auto;html=1;entryX=0.5;entryY=0;entryDx=0;entryDy=0;" edge="1" parent="1" source="rh2bYiGe0c8pdotI4nRt-2" target="rh2bYiGe0c8pdotI4nRt-4">
          <mxGeometry relative="1" as="geometry">
            <mxPoint x="728.75" y="720" as="targetPoint" />
          </mxGeometry>
        </mxCell>
        <mxCell id="rh2bYiGe0c8pdotI4nRt-2" value="" style="rounded=0;whiteSpace=wrap;html=1;fillColor=#dae8fc;strokeColor=#6c8ebf;" vertex="1" parent="1">
          <mxGeometry x="628.75" y="340" width="200" height="320" as="geometry" />
        </mxCell>
        <mxCell id="rh2bYiGe0c8pdotI4nRt-11" style="edgeStyle=orthogonalEdgeStyle;rounded=0;orthogonalLoop=1;jettySize=auto;html=1;" edge="1" parent="1" source="rh2bYiGe0c8pdotI4nRt-4" target="rh2bYiGe0c8pdotI4nRt-10">
          <mxGeometry relative="1" as="geometry" />
        </mxCell>
        <mxCell id="rh2bYiGe0c8pdotI4nRt-4" value="" style="rounded=0;whiteSpace=wrap;html=1;fillColor=#dae8fc;strokeColor=#6c8ebf;" vertex="1" parent="1">
          <mxGeometry x="588.74" y="720" width="280" height="280" as="geometry" />
        </mxCell>
        <mxCell id="rh2bYiGe0c8pdotI4nRt-6" value="&lt;div&gt;Basic Device Info:&lt;/div&gt;- VID&lt;div&gt;- PID&lt;/div&gt;&lt;div&gt;- Device Class&lt;/div&gt;&lt;div&gt;- USB version supported&lt;/div&gt;&lt;div&gt;- Max. packet size for EP 0&lt;/div&gt;&lt;div&gt;- Number of possible configurations&lt;/div&gt;" style="rounded=0;whiteSpace=wrap;html=1;fillColor=#647687;strokeColor=#314354;fontColor=#ffffff;" vertex="1" parent="1">
          <mxGeometry x="633.12" y="840" width="191.25" height="120" as="geometry" />
        </mxCell>
        <mxCell id="rh2bYiGe0c8pdotI4nRt-7" value="&amp;nbsp;Device Descriptor" style="rounded=0;whiteSpace=wrap;html=1;fillColor=#dae8fc;strokeColor=none;" vertex="1" parent="1">
          <mxGeometry x="670.9399999999999" y="724" width="115.62" height="20" as="geometry" />
        </mxCell>
        <mxCell id="rh2bYiGe0c8pdotI4nRt-10" value="" style="rounded=0;whiteSpace=wrap;html=1;fillColor=#dae8fc;strokeColor=#6c8ebf;" vertex="1" parent="1">
          <mxGeometry x="588.74" y="1050" width="280" height="260" as="geometry" />
        </mxCell>
        <mxCell id="rh2bYiGe0c8pdotI4nRt-13" value="Configuration" style="rounded=0;whiteSpace=wrap;html=1;fillColor=#dae8fc;strokeColor=none;" vertex="1" parent="1">
          <mxGeometry x="655.01" y="1060" width="150" height="40" as="geometry" />
        </mxCell>
        <mxCell id="rh2bYiGe0c8pdotI4nRt-15" value="" style="rounded=0;whiteSpace=wrap;html=1;fillColor=#647687;strokeColor=#314354;fontColor=#ffffff;" vertex="1" parent="1">
          <mxGeometry x="652.49" y="1110" width="157.51" height="50" as="geometry" />
        </mxCell>
        <mxCell id="rh2bYiGe0c8pdotI4nRt-16" value="&lt;div&gt;Config Descriptor:&lt;/div&gt;- What power the device supports in (mA)&lt;div&gt;- What interfaces it has&lt;/div&gt;&lt;div&gt;- Bus-powered or Self-powered&lt;/div&gt;&lt;div&gt;- Total Length of all Descriptors&lt;/div&gt;&lt;div&gt;- Remote Wake-Up Support&lt;/div&gt;" style="rounded=0;whiteSpace=wrap;html=1;fillColor=#647687;strokeColor=none;fontColor=#ffffff;" vertex="1" parent="1">
          <mxGeometry x="612.49" y="1180" width="230" height="103.5" as="geometry" />
        </mxCell>
        <mxCell id="rh2bYiGe0c8pdotI4nRt-14" value="Config Descriptor Request" style="rounded=0;whiteSpace=wrap;html=1;fillColor=#647687;strokeColor=none;fontColor=#ffffff;" vertex="1" parent="1">
          <mxGeometry x="678.49" y="1121" width="110" height="28" as="geometry" />
        </mxCell>
        <mxCell id="rh2bYiGe0c8pdotI4nRt-37" value="Initial States" style="rounded=0;whiteSpace=wrap;html=1;fillColor=none;strokeColor=none;" vertex="1" parent="1">
          <mxGeometry x="678.75" y="350" width="100" height="30" as="geometry" />
        </mxCell>
        <mxCell id="rh2bYiGe0c8pdotI4nRt-40" style="edgeStyle=orthogonalEdgeStyle;rounded=0;orthogonalLoop=1;jettySize=auto;html=1;entryX=0.25;entryY=0;entryDx=0;entryDy=0;" edge="1" parent="1" source="rh2bYiGe0c8pdotI4nRt-38" target="rh2bYiGe0c8pdotI4nRt-39">
          <mxGeometry relative="1" as="geometry">
            <Array as="points">
              <mxPoint x="729" y="440" />
              <mxPoint x="699" y="440" />
            </Array>
          </mxGeometry>
        </mxCell>
        <mxCell id="rh2bYiGe0c8pdotI4nRt-38" value="USB POWER ON" style="rounded=0;whiteSpace=wrap;html=1;fillColor=#647687;fontColor=#ffffff;strokeColor=#314354;" vertex="1" parent="1">
          <mxGeometry x="668.75" y="385" width="120" height="30" as="geometry" />
        </mxCell>
        <mxCell id="rh2bYiGe0c8pdotI4nRt-42" style="edgeStyle=orthogonalEdgeStyle;rounded=0;orthogonalLoop=1;jettySize=auto;html=1;" edge="1" parent="1" source="rh2bYiGe0c8pdotI4nRt-39" target="rh2bYiGe0c8pdotI4nRt-41">
          <mxGeometry relative="1" as="geometry" />
        </mxCell>
        <mxCell id="rh2bYiGe0c8pdotI4nRt-39" value="USB Reset State (address 0)" style="rounded=0;whiteSpace=wrap;html=1;fillColor=#647687;fontColor=#ffffff;strokeColor=#314354;" vertex="1" parent="1">
          <mxGeometry x="668.75" y="470" width="120" height="30" as="geometry" />
        </mxCell>
        <mxCell id="rh2bYiGe0c8pdotI4nRt-44" style="edgeStyle=orthogonalEdgeStyle;rounded=0;orthogonalLoop=1;jettySize=auto;html=1;" edge="1" parent="1" source="rh2bYiGe0c8pdotI4nRt-41" target="rh2bYiGe0c8pdotI4nRt-43">
          <mxGeometry relative="1" as="geometry" />
        </mxCell>
        <mxCell id="rh2bYiGe0c8pdotI4nRt-41" value="Speed Negotiation" style="rounded=0;whiteSpace=wrap;html=1;fillColor=#647687;fontColor=#ffffff;strokeColor=#314354;" vertex="1" parent="1">
          <mxGeometry x="668.75" y="530" width="120" height="30" as="geometry" />
        </mxCell>
        <mxCell id="rh2bYiGe0c8pdotI4nRt-43" value="RST Packet Exchange" style="rounded=0;whiteSpace=wrap;html=1;fillColor=#647687;fontColor=#ffffff;strokeColor=#314354;" vertex="1" parent="1">
          <mxGeometry x="659.38" y="590" width="141.25" height="30" as="geometry" />
        </mxCell>
        <mxCell id="rh2bYiGe0c8pdotI4nRt-51" style="edgeStyle=orthogonalEdgeStyle;rounded=0;orthogonalLoop=1;jettySize=auto;html=1;" edge="1" parent="1" source="rh2bYiGe0c8pdotI4nRt-47" target="rh2bYiGe0c8pdotI4nRt-6">
          <mxGeometry relative="1" as="geometry" />
        </mxCell>
        <mxCell id="rh2bYiGe0c8pdotI4nRt-47" value="&amp;nbsp;Device Descriptor Request" style="rounded=0;whiteSpace=wrap;html=1;fillColor=#647687;strokeColor=#314354;fontColor=#ffffff;" vertex="1" parent="1">
          <mxGeometry x="664.22" y="750" width="129.06" height="50" as="geometry" />
        </mxCell>
        <mxCell id="rh2bYiGe0c8pdotI4nRt-52" value="" style="rounded=0;whiteSpace=wrap;html=1;fillColor=#dae8fc;strokeColor=#6c8ebf;" vertex="1" parent="1">
          <mxGeometry x="588.74" y="1350" width="761.26" height="580" as="geometry" />
        </mxCell>
        <mxCell id="rh2bYiGe0c8pdotI4nRt-53" value="HID Configuration" style="rounded=0;whiteSpace=wrap;html=1;fillColor=#dae8fc;strokeColor=none;" vertex="1" parent="1">
          <mxGeometry x="655.01" y="1370" width="150" height="40" as="geometry" />
        </mxCell>
        <mxCell id="rh2bYiGe0c8pdotI4nRt-55" style="edgeStyle=orthogonalEdgeStyle;rounded=0;orthogonalLoop=1;jettySize=auto;html=1;entryX=0.5;entryY=0;entryDx=0;entryDy=0;" edge="1" parent="1" source="rh2bYiGe0c8pdotI4nRt-17" target="rh2bYiGe0c8pdotI4nRt-26">
          <mxGeometry relative="1" as="geometry" />
        </mxCell>
        <mxCell id="rh2bYiGe0c8pdotI4nRt-17" value="" style="rounded=0;whiteSpace=wrap;html=1;fillColor=#647687;strokeColor=#314354;fontColor=#ffffff;" vertex="1" parent="1">
          <mxGeometry x="612.49" y="1416" width="400" height="90" as="geometry" />
        </mxCell>
        <mxCell id="rh2bYiGe0c8pdotI4nRt-18" value="Interface Descriptor:" style="rounded=0;whiteSpace=wrap;html=1;fillColor=#647687;strokeColor=#314354;fontColor=#ffffff;" vertex="1" parent="1">
          <mxGeometry x="622.49" y="1426" width="120" height="28" as="geometry" />
        </mxCell>
        <mxCell id="rh2bYiGe0c8pdotI4nRt-19" value="- bInterfaceClass(0x03 for HID)&lt;div&gt;- bInterfaceSubClass&lt;/div&gt;&lt;div&gt;- bInterfaceProtocol&lt;/div&gt;&lt;div&gt;- bNumEndpoints&lt;/div&gt;" style="rounded=0;whiteSpace=wrap;html=1;fillColor=#647687;strokeColor=none;fontColor=#ffffff;" vertex="1" parent="1">
          <mxGeometry x="767" y="1420.75" width="230" height="80.5" as="geometry" />
        </mxCell>
        <mxCell id="rh2bYiGe0c8pdotI4nRt-57" style="edgeStyle=orthogonalEdgeStyle;rounded=0;orthogonalLoop=1;jettySize=auto;html=1;entryX=0.5;entryY=0;entryDx=0;entryDy=0;" edge="1" parent="1" source="rh2bYiGe0c8pdotI4nRt-21" target="rh2bYiGe0c8pdotI4nRt-34">
          <mxGeometry relative="1" as="geometry" />
        </mxCell>
        <mxCell id="rh2bYiGe0c8pdotI4nRt-21" value="" style="rounded=0;whiteSpace=wrap;html=1;fillColor=#647687;strokeColor=#314354;fontColor=#ffffff;" vertex="1" parent="1">
          <mxGeometry x="612.49" y="1680" width="400" height="90" as="geometry" />
        </mxCell>
        <mxCell id="rh2bYiGe0c8pdotI4nRt-24" value="- Direction (IN from Host / OUT from Host)&lt;div&gt;- Transfer Type (Interrupt for KBD)&lt;/div&gt;&lt;div&gt;- Maximum packet size&lt;/div&gt;&lt;div&gt;- Polling rate&lt;/div&gt;" style="rounded=0;whiteSpace=wrap;html=1;fillColor=#647687;strokeColor=none;fontColor=#ffffff;" vertex="1" parent="1">
          <mxGeometry x="758.49" y="1686" width="230" height="80.5" as="geometry" />
        </mxCell>
        <mxCell id="rh2bYiGe0c8pdotI4nRt-25" value="Endpoint Descriptor:" style="rounded=0;whiteSpace=wrap;html=1;fillColor=#647687;strokeColor=#314354;fontColor=#ffffff;" vertex="1" parent="1">
          <mxGeometry x="622.49" y="1690" width="120" height="28" as="geometry" />
        </mxCell>
        <mxCell id="rh2bYiGe0c8pdotI4nRt-56" style="edgeStyle=orthogonalEdgeStyle;rounded=0;orthogonalLoop=1;jettySize=auto;html=1;entryX=0.5;entryY=0;entryDx=0;entryDy=0;" edge="1" parent="1" source="rh2bYiGe0c8pdotI4nRt-26" target="rh2bYiGe0c8pdotI4nRt-21">
          <mxGeometry relative="1" as="geometry" />
        </mxCell>
        <mxCell id="rh2bYiGe0c8pdotI4nRt-26" value="" style="rounded=0;whiteSpace=wrap;html=1;fillColor=#647687;strokeColor=#314354;fontColor=#ffffff;" vertex="1" parent="1">
          <mxGeometry x="612.49" y="1550" width="400" height="90" as="geometry" />
        </mxCell>
        <mxCell id="rh2bYiGe0c8pdotI4nRt-27" value="HID Descriptor:" style="rounded=0;whiteSpace=wrap;html=1;fillColor=#647687;strokeColor=#314354;fontColor=#ffffff;" vertex="1" parent="1">
          <mxGeometry x="622.49" y="1554" width="120" height="28" as="geometry" />
        </mxCell>
        <mxCell id="rh2bYiGe0c8pdotI4nRt-29" value="&lt;div&gt;- bcdHID (HID Version)&lt;/div&gt;&lt;div&gt;- Country code&lt;/div&gt;&lt;div&gt;- Report Descriptor Length&lt;/div&gt;&lt;div&gt;- Number of Descriptors&lt;/div&gt;" style="rounded=0;whiteSpace=wrap;html=1;fillColor=#647687;strokeColor=none;fontColor=#ffffff;" vertex="1" parent="1">
          <mxGeometry x="760" y="1553" width="228.49" height="79.97" as="geometry" />
        </mxCell>
        <mxCell id="rh2bYiGe0c8pdotI4nRt-34" value="" style="rounded=0;whiteSpace=wrap;html=1;fillColor=#647687;strokeColor=#314354;fontColor=#ffffff;" vertex="1" parent="1">
          <mxGeometry x="900" y="1840" width="400" height="70" as="geometry" />
        </mxCell>
        <mxCell id="rh2bYiGe0c8pdotI4nRt-35" value="Report Descriptor:" style="rounded=0;whiteSpace=wrap;html=1;fillColor=#647687;strokeColor=#314354;fontColor=#ffffff;" vertex="1" parent="1">
          <mxGeometry x="910" y="1844" width="120" height="28" as="geometry" />
        </mxCell>
        <mxCell id="rh2bYiGe0c8pdotI4nRt-36" value="&lt;div&gt;- Usage Page&lt;/div&gt;&lt;div&gt;- Usage (Keyboard/Mouse)&lt;/div&gt;&lt;div&gt;- Report Structure&amp;nbsp;&lt;/div&gt;&lt;div&gt;- I/O Reports&lt;/div&gt;" style="rounded=0;whiteSpace=wrap;html=1;fillColor=#647687;strokeColor=none;fontColor=#ffffff;" vertex="1" parent="1">
          <mxGeometry x="1045.76" y="1846.25" width="241.51" height="57.5" as="geometry" />
        </mxCell>
        <mxCell id="rh2bYiGe0c8pdotI4nRt-58" style="edgeStyle=orthogonalEdgeStyle;rounded=0;orthogonalLoop=1;jettySize=auto;html=1;entryX=0.251;entryY=0.017;entryDx=0;entryDy=0;entryPerimeter=0;" edge="1" parent="1" source="rh2bYiGe0c8pdotI4nRt-10" target="rh2bYiGe0c8pdotI4nRt-52">
          <mxGeometry relative="1" as="geometry" />
        </mxCell>
        <mxCell id="rh2bYiGe0c8pdotI4nRt-59" value="" style="rounded=0;whiteSpace=wrap;html=1;fillColor=#dae8fc;strokeColor=#6c8ebf;" vertex="1" parent="1">
          <mxGeometry x="988.49" y="70" width="481.51" height="440" as="geometry" />
        </mxCell>
        <mxCell id="rh2bYiGe0c8pdotI4nRt-61" value="Device States" style="rounded=0;whiteSpace=wrap;html=1;fillColor=#dae8fc;strokeColor=none;" vertex="1" parent="1">
          <mxGeometry x="1140" y="90" width="120" height="30" as="geometry" />
        </mxCell>
        <mxCell id="rh2bYiGe0c8pdotI4nRt-82" style="edgeStyle=orthogonalEdgeStyle;rounded=0;orthogonalLoop=1;jettySize=auto;html=1;" edge="1" parent="1" source="rh2bYiGe0c8pdotI4nRt-62" target="rh2bYiGe0c8pdotI4nRt-63">
          <mxGeometry relative="1" as="geometry" />
        </mxCell>
        <mxCell id="rh2bYiGe0c8pdotI4nRt-62" value="Device Configured" style="rounded=0;whiteSpace=wrap;html=1;fillColor=#647687;fontColor=#ffffff;strokeColor=#314354;" vertex="1" parent="1">
          <mxGeometry x="1240" y="160" width="120" height="30" as="geometry" />
        </mxCell>
        <mxCell id="rh2bYiGe0c8pdotI4nRt-75" style="edgeStyle=orthogonalEdgeStyle;rounded=0;orthogonalLoop=1;jettySize=auto;html=1;" edge="1" parent="1" source="rh2bYiGe0c8pdotI4nRt-63" target="rh2bYiGe0c8pdotI4nRt-68">
          <mxGeometry relative="1" as="geometry" />
        </mxCell>
        <mxCell id="rh2bYiGe0c8pdotI4nRt-76" style="edgeStyle=orthogonalEdgeStyle;rounded=0;orthogonalLoop=1;jettySize=auto;html=1;" edge="1" parent="1" source="rh2bYiGe0c8pdotI4nRt-63" target="rh2bYiGe0c8pdotI4nRt-73">
          <mxGeometry relative="1" as="geometry" />
        </mxCell>
        <mxCell id="rh2bYiGe0c8pdotI4nRt-63" value="Ready for Operation" style="rounded=0;whiteSpace=wrap;html=1;fillColor=#647687;fontColor=#ffffff;strokeColor=#314354;" vertex="1" parent="1">
          <mxGeometry x="1080" y="230" width="120" height="30" as="geometry" />
        </mxCell>
        <mxCell id="rh2bYiGe0c8pdotI4nRt-64" value="Error Handling" style="rounded=0;whiteSpace=wrap;html=1;fillColor=#647687;fontColor=#ffffff;strokeColor=#314354;" vertex="1" parent="1">
          <mxGeometry x="1010" y="340" width="120" height="30" as="geometry" />
        </mxCell>
        <mxCell id="rh2bYiGe0c8pdotI4nRt-67" value="USB Suspend" style="rounded=0;whiteSpace=wrap;html=1;fillColor=#647687;fontColor=#ffffff;strokeColor=#314354;" vertex="1" parent="1">
          <mxGeometry x="1190" y="370" width="120" height="30" as="geometry" />
        </mxCell>
        <mxCell id="rh2bYiGe0c8pdotI4nRt-80" style="edgeStyle=orthogonalEdgeStyle;rounded=0;orthogonalLoop=1;jettySize=auto;html=1;" edge="1" parent="1" source="rh2bYiGe0c8pdotI4nRt-68" target="rh2bYiGe0c8pdotI4nRt-64">
          <mxGeometry relative="1" as="geometry" />
        </mxCell>
        <mxCell id="rh2bYiGe0c8pdotI4nRt-68" value="Error" style="rounded=0;whiteSpace=wrap;html=1;" vertex="1" parent="1">
          <mxGeometry x="1040" y="290" width="60" height="20" as="geometry" />
        </mxCell>
        <mxCell id="rh2bYiGe0c8pdotI4nRt-77" style="edgeStyle=orthogonalEdgeStyle;rounded=0;orthogonalLoop=1;jettySize=auto;html=1;" edge="1" parent="1" source="rh2bYiGe0c8pdotI4nRt-73" target="rh2bYiGe0c8pdotI4nRt-67">
          <mxGeometry relative="1" as="geometry" />
        </mxCell>
        <mxCell id="rh2bYiGe0c8pdotI4nRt-73" value="Suspend" style="rounded=0;whiteSpace=wrap;html=1;" vertex="1" parent="1">
          <mxGeometry x="1158.49" y="300" width="60" height="20" as="geometry" />
        </mxCell>
        <mxCell id="rh2bYiGe0c8pdotI4nRt-79" style="edgeStyle=orthogonalEdgeStyle;rounded=0;orthogonalLoop=1;jettySize=auto;html=1;entryX=1;entryY=0.5;entryDx=0;entryDy=0;" edge="1" parent="1" source="rh2bYiGe0c8pdotI4nRt-74" target="rh2bYiGe0c8pdotI4nRt-63">
          <mxGeometry relative="1" as="geometry" />
        </mxCell>
        <mxCell id="rh2bYiGe0c8pdotI4nRt-74" value="Resume" style="rounded=0;whiteSpace=wrap;html=1;" vertex="1" parent="1">
          <mxGeometry x="1270" y="300" width="60" height="20" as="geometry" />
        </mxCell>
        <mxCell id="rh2bYiGe0c8pdotI4nRt-78" style="edgeStyle=orthogonalEdgeStyle;rounded=0;orthogonalLoop=1;jettySize=auto;html=1;entryX=0.604;entryY=1.192;entryDx=0;entryDy=0;entryPerimeter=0;" edge="1" parent="1" source="rh2bYiGe0c8pdotI4nRt-67" target="rh2bYiGe0c8pdotI4nRt-74">
          <mxGeometry relative="1" as="geometry" />
        </mxCell>
        <mxCell id="rh2bYiGe0c8pdotI4nRt-81" style="edgeStyle=orthogonalEdgeStyle;rounded=0;orthogonalLoop=1;jettySize=auto;html=1;entryX=0.706;entryY=0.047;entryDx=0;entryDy=0;entryPerimeter=0;" edge="1" parent="1" source="rh2bYiGe0c8pdotI4nRt-64" target="rh2bYiGe0c8pdotI4nRt-39">
          <mxGeometry relative="1" as="geometry">
            <Array as="points">
              <mxPoint x="1070" y="440" />
              <mxPoint x="753" y="440" />
            </Array>
          </mxGeometry>
        </mxCell>
        <mxCell id="rh2bYiGe0c8pdotI4nRt-83" style="edgeStyle=orthogonalEdgeStyle;rounded=0;orthogonalLoop=1;jettySize=auto;html=1;entryX=1;entryY=0.5;entryDx=0;entryDy=0;" edge="1" parent="1" source="rh2bYiGe0c8pdotI4nRt-36" target="rh2bYiGe0c8pdotI4nRt-62">
          <mxGeometry relative="1" as="geometry" />
        </mxCell>
      </root>
    </mxGraphModel>
  </diagram>
</mxfile>
